HIERARCHY
ROOT Hips
{
    OFFSET 0.000000 0.000000 0.000000
    CHANNELS 6 Xposition Yposition Zposition Zrotation Xrotation Yrotation
    JOINT Spine
    {
        OFFSET -0.000000 7.236184 0.000000
        CHANNELS 3 Zrotation Xrotation Yrotation
        JOINT Spine1
        {
            OFFSET -0.000000 20.420147 0.000000
            CHANNELS 3 Zrotation Xrotation Yrotation
            JOINT Neck
            {
                OFFSET -0.000000 20.336288 1.848754
                CHANNELS 3 Zrotation Xrotation Yrotation
                JOINT Head
                {
                    OFFSET -0.000000 12.354461 -1.764923
                    CHANNELS 3 Zrotation Xrotation Yrotation
                    End Site
                    {
                        OFFSET -0.000000 22.061537 0.000000
                    }
                }
            }
            JOINT LeftShoulder
            {
                OFFSET 3.573296 18.396038 -0.314103
                CHANNELS 3 Zrotation Xrotation Yrotation
                JOINT LeftArm
                {
                    OFFSET 10.880760 0.000000 0.000000
                    CHANNELS 3 Zrotation Xrotation Yrotation
                    JOINT LeftForeArm
                    {
                        OFFSET 27.185530 0.000000 0.000000
                        CHANNELS 3 Zrotation Xrotation Yrotation
                        JOINT LeftHand
                        {
                            OFFSET 27.825975 0.000000 0.000000
                            CHANNELS 3 Zrotation Xrotation Yrotation
                            End Site
                            {
                                OFFSET 13.236923 0.000000 0.000000
                            }
                        }
                    }
                }
            }
            JOINT RightShoulder
            {
                OFFSET -3.474926 18.396038 -0.314103
                CHANNELS 3 Zrotation Xrotation Yrotation
                JOINT RightArm
                {
                    OFFSET -10.880760 0.000000 0.000000
                    CHANNELS 3 Zrotation Xrotation Yrotation
                    JOINT RightForeArm
                    {
                        OFFSET -27.185530 0.000000 0.000000
                        CHANNELS 3 Zrotation Xrotation Yrotation
                        JOINT RightHand
                        {
                            OFFSET -27.825975 0.000000 0.000000
                            CHANNELS 3 Zrotation Xrotation Yrotation
                            End Site
                            {
                                OFFSET -13.236923 0.000000 0.000000
                            }
                        }
                    }
                }
            }
        }
    }
    JOINT LeftUpLeg
    {
        OFFSET 8.824615 0.000000 0.000000
        CHANNELS 3 Zrotation Xrotation Yrotation
        JOINT LeftLeg
        {
            OFFSET -0.000000 -35.111282 0.000000
            CHANNELS 3 Zrotation Xrotation Yrotation
            JOINT LeftFoot
            {
                OFFSET -0.000000 -42.324711 0.000000
                CHANNELS 3 Zrotation Xrotation Yrotation
                JOINT LeftToeBase
                {
                    OFFSET -0.000000 -5.735999 13.236923
                    CHANNELS 3 Zrotation Xrotation Yrotation
                    End Site
                    {
                        OFFSET -0.000000 0.000000 3.529846
                    }
                }
            }
        }
    }
    JOINT RightUpLeg
    {
        OFFSET -8.824615 0.000000 0.000000
        CHANNELS 3 Zrotation Xrotation Yrotation
        JOINT RightLeg
        {
            OFFSET -0.000000 -35.111282 0.000000
            CHANNELS 3 Zrotation Xrotation Yrotation
            JOINT RightFoot
            {
                OFFSET -0.000000 -42.324711 0.000000
                CHANNELS 3 Zrotation Xrotation Yrotation
                JOINT RightToeBase
                {
                    OFFSET -0.000000 -5.735999 13.236923
                    CHANNELS 3 Zrotation Xrotation Yrotation
                    End Site
                    {
                        OFFSET -0.000000 0.000000 3.529846
                    }
                }
            }
        }
    }
}
MOTION
Frames:    11
Frame Time:    0.008333
-4.209512    81.442177    98.211960    -0.457335    -11.989188    -178.007126    -1.872102    -13.775545    0.557388    0.881730    8.584668    0.717483    3.803570    1.934702    -0.825012    4.275575    -11.661510    -0.325409    0.887895    17.884417    -1.713615    -43.130032    45.280338    -43.914330    2.573317    -4.864429    -14.324014    16.448910    -4.426993    0.798924    6.072121    19.336159    -5.007409    39.871735    44.586292    41.700069    -5.726504    -10.544863    15.623215    -15.074745    -9.211026    -4.288239    6.125827    -10.139518    -0.970690    -1.919350    8.534478    -0.286386    -5.401504    -8.415703    -8.068943    -0.394416    0.162778    0.437068    -5.878085    -6.748655    1.339412    3.096723    3.209457    4.465632    0.414364    -5.265654    -11.491198    -2.270268    0.230556    2.454645    
-4.217057    81.443626    98.186386    -0.459547    -12.025072    -178.024918    -1.875876    -13.768326    0.554676    0.877289    8.589104    0.715352    3.782568    1.975109    -0.836117    4.312940    -11.685113    -0.322933    0.889462    17.865980    -1.750016    -43.041401    45.243481    -43.976250    2.579933    -4.885778    -14.342421    16.423838    -4.449080    0.786531    6.075898    19.310505    -4.995649    39.842415    44.518810    41.731194    -5.749709    -10.560374    15.695040    -15.067763    -9.220336    -4.286269    6.122657    -10.154485    -0.958949    -1.923571    8.532831    -0.265848    -5.408739    -8.407401    -8.084054    -0.389010    0.167419    0.431074    -5.881670    -6.782075    1.310265    3.092810    3.234700    4.504692    0.414747    -5.273409    -11.491529    -2.279089    0.220037    2.464217    
-4.224102    81.444977    98.162445    -0.461673    -12.058128    -178.041229    -1.879871    -13.761640    0.552109    0.874285    8.593390    0.713340    3.761984    2.012008    -0.846682    4.348312    -11.705695    -0.320617    0.890467    17.848576    -1.783712    -42.959240    45.208210    -44.033764    2.586390    -4.905522    -14.360752    16.399696    -4.469316    0.775809    6.078603    19.286749    -4.985152    39.815865    44.455276    41.759880    -5.771754    -10.575267    15.763227    -15.060328    -9.229282    -4.284971    6.119726    -10.167821    -0.948718    -1.927762    8.530870    -0.245963    -5.415674    -8.399385    -8.098463    -0.383869    0.171962    0.425374    -5.885025    -6.812876    1.282772    3.089004    3.258568    4.541224    0.415910    -5.280821    -11.491811    -2.287314    0.210140    2.473143    
-4.232090    81.446503    98.135109    -0.464239    -12.094650    -178.059082    -1.884060    -13.754189    0.549212    0.869794    8.598226    0.711118    3.740015    2.053419    -0.858432    4.387952    -11.727215    -0.318244    0.893270    17.829266    -1.821025    -42.868362    45.165733    -44.099003    2.594360    -4.927139    -14.383204    16.370230    -4.491178    0.765055    6.082529    19.260061    -4.973305    39.786659    44.382675    41.790699    -5.797728    -10.593329    15.843298    -15.050179    -9.240163    -4.284921    6.116344    -10.181519    -0.938482    -1.932775    8.527755    -0.222690    -5.424114    -8.389850    -8.114956    -0.377734    0.177013    0.418571    -5.888959    -6.846814    1.251031    3.084580    3.286055    4.582703    0.419119    -5.289483    -11.492030    -2.296530    0.198333    2.483147    
-4.239558    81.447929    98.109261    -0.466806    -12.127539    -178.074738    -1.888685    -13.747636    0.546366    0.867258    8.603422    0.708893    3.718350    2.090343    -0.869689    4.425553    -11.743797    -0.316121    0.895659    17.810713    -1.854877    -42.785610    45.122780    -44.159668    2.602668    -4.946518    -14.407335    16.339382    -4.510255    0.757458    6.085030    19.235580    -4.963031    39.761242    44.312958    41.818054    -5.823537    -10.611471    15.922358    -15.037986    -9.251002    -4.286796    6.113261    -10.192408    -0.931034    -1.938220    8.523452    -0.199532    -5.432552    -8.380100    -8.130734    -0.371652    0.182505    0.411828    -5.892740    -6.877241    1.220422    3.080197    3.312401    4.621571    0.425114    -5.297965    -11.492006    -2.304977    0.186514    2.492320    
-4.246924    81.449364    98.083321    -0.469506    -12.158624    -178.089035    -1.893214    -13.741662    0.543515    0.864527    8.609104    0.706640    3.697648    2.125652    -0.880785    4.462650    -11.757138    -0.314329    0.899486    17.792248    -1.887193    -42.707134    45.075878    -44.219650    2.612216    -4.964447    -14.434563    16.304314    -4.527246    0.752907    6.087772    19.211630    -4.953074    39.738377    44.241749    41.842144    -5.850954    -10.631033    16.006279    -15.022720    -9.262573    -4.290912    6.110308    -10.200981    -0.925738    -1.944262    8.517694    -0.175169    -5.441852    -8.369541    -8.147069    -0.365125    0.188305    0.404592    -5.896619    -6.905798    1.189440    3.075686    3.339187    4.660169    0.434677    -5.306759    -11.492155    -2.313097    0.173641    2.501144    
-4.254211    81.450844    98.057083    -0.472329    -12.188010    -178.101700    -1.898333    -13.736412    0.540509    0.863325    8.615930    0.704147    3.675990    2.158432    -0.892164    4.500504    -11.766539    -0.312708    0.903444    17.772896    -1.918145    -42.632278    45.023865    -44.279133    2.623110    -4.980811    -14.466131    16.263586    -4.541897    0.752103    6.089364    19.187937    -4.943637    39.718601    44.167690    41.863228    -5.880843    -10.652164    16.097275    -15.003799    -9.274744    -4.297786    6.107454    -10.207244    -0.922405    -1.950831    8.510531    -0.149931    -5.452172    -8.358124    -8.164086    -0.357987    0.194701    0.396677    -5.900509    -6.932670    1.157455    3.070858    3.366919    4.698210    0.448970    -5.316077    -11.491707    -2.320774    0.159440    2.509493    
-4.261287    81.452354    98.030815    -0.475163    -12.215281    -178.112381    -1.902884    -13.732075    0.537358    0.861060    8.623840    0.701628    3.655781    2.188406    -0.903356    4.538296    -11.771944    -0.311445    0.909710    17.752804    -1.947192    -42.563271    44.966389    -44.337471    2.635628    -4.994874    -14.501835    16.216179    -4.553410    0.755371    6.091934    19.164635    -4.934218    39.701893    44.090702    41.879829    -5.912976    -10.674549    16.196510    -14.981347    -9.287123    -4.307758    6.104908    -10.211075    -0.920592    -1.958004    8.501909    -0.124523    -5.463502    -8.345755    -8.181778    -0.350159    0.201742    0.387998    -5.904338    -6.957368    1.125063    3.065895    3.395155    4.735305    0.467796    -5.325649    -11.491127    -2.327828    0.143954    2.517174    
-4.268140    81.453964    98.004341    -0.477919    -12.240707    -178.120880    -1.907240    -13.728734    0.534011    0.858748    8.633132    0.698832    3.636120    2.215830    -0.914676    4.576522    -11.774203    -0.310393    0.917294    17.731491    -1.974823    -42.499512    44.901791    -44.394970    2.650003    -5.006324    -14.542614    16.160542    -4.561316    0.763456    6.094522    19.141253    -4.924367    39.689243    44.009361    41.891361    -5.948258    -10.697937    16.306622    -14.954957    -9.299166    -4.320979    6.102813    -10.212785    -0.919551    -1.965736    8.492119    -0.099769    -5.475983    -8.332476    -8.200208    -0.341448    0.209835    0.378340    -5.907959    -6.980219    1.092001    3.060633    3.424375    4.771511    0.491508    -5.335645    -11.490401    -2.334158    0.126813    2.524078    
-4.274679    81.455696    97.977722    -0.480420    -12.264305    -178.126907    -1.911176    -13.726477    0.530362    0.856096    8.644052    0.695777    3.616656    2.240151    -0.926214    4.616291    -11.773313    -0.309510    0.926888    17.708141    -2.001258    -42.441795    44.829685    -44.451294    2.666663    -5.014785    -14.589170    16.095158    -4.565160    0.776714    6.097154    19.117701    -4.913915    39.680683    43.922741    41.897747    -5.987013    -10.721583    16.429996    -14.925015    -9.309876    -4.337789    6.101281    -10.212708    -0.918136    -1.973717    8.481500    -0.076663    -5.489845    -8.318303    -8.219779    -0.331719    0.218703    0.367555    -5.911262    -7.001192    1.058721    3.055303    3.454405    4.806644    0.519437    -5.345819    -11.490129    -2.339642    0.107953    2.530073    
-4.280260    81.457405    97.953415    -0.482310    -12.284182    -178.129929    -1.914347    -13.725406    0.526772    0.853517    8.655560    0.692628    3.599269    2.259837    -0.937002    4.653634    -11.770851    -0.308817    0.937204    17.684824    -2.024440    -42.394264    44.756657    -44.501762    2.684279    -5.019413    -14.637476    16.025568    -4.564454    0.793965    6.099386    19.095797    -4.903489    39.676613    43.838833    41.898529    -6.026314    -10.742573    16.556629    -14.894794    -9.317399    -4.356186    6.100671    -10.211326    -0.915545    -1.981162    8.471532    -0.058601    -5.503695    -8.304829    -8.238250    -0.321799    0.227819    0.356558    -5.913743    -7.018704    1.028295    3.050324    3.482622    4.837080    0.548053    -5.355229    -11.490048    -2.343842    0.089408    2.534678    
